<svg viewBox="0 0 24 24" height="128" width="128" xmlns="http://www.w3.org/2000/svg">
  <path opacity=".3" class="duoicon-secondary-layer" d="M6 2a2 2 0 0 0-2 2v1a1 1 0 1 0 0 2v2a1 1 0 1 0 0 2v2a1 1 0 1 0 0 2v2a1 1 0 1 0 0 2v1a2 2 0 0 0 2 2h12a2 2 0 0 0 2-2V4a2 2 0 0 0-2-2z" fill-rule="evenodd" fill="#d97706"></path>
  <path class="duoicon-primary-layer" d="M8.5 6A1.5 1.5 0 0 0 7 7.5v1A1.5 1.5 0 0 0 8.5 10h7A1.5 1.5 0 0 0 17 8.5v-1A1.5 1.5 0 0 0 15.5 6z" fill-rule="evenodd" fill="#f59e0b"></path>
</svg>
